<?xml version="1.0" encoding="UTF-8" standalone="no"?>
<svg
   width="32"
   height="32"
   viewBox="0 0 32 32"
   fill="none"
   version="1.1"
   id="svg6"
   sodipodi:docname="instagram1.svg"
   inkscape:version="1.1.2 (b8e25be833, 2022-02-05)"
   xmlns:inkscape="http://www.inkscape.org/namespaces/inkscape"
   xmlns:sodipodi="http://sodipodi.sourceforge.net/DTD/sodipodi-0.dtd"
   xmlns="http://www.w3.org/2000/svg"
   xmlns:svg="http://www.w3.org/2000/svg">
  <defs
     id="defs10" />
  <sodipodi:namedview
     id="namedview8"
     pagecolor="#ffffff"
     bordercolor="#666666"
     borderopacity="1.0"
     inkscape:pageshadow="2"
     inkscape:pageopacity="0.0"
     inkscape:pagecheckerboard="0"
     showgrid="false"
     inkscape:zoom="9.4796503"
     inkscape:cx="30.750079"
     inkscape:cy="9.9687222"
     inkscape:window-width="1920"
     inkscape:window-height="1051"
     inkscape:window-x="-9"
     inkscape:window-y="-9"
     inkscape:window-maximized="1"
     inkscape:current-layer="svg6">
    <sodipodi:guide
       position="0,32"
       orientation="0,32"
       id="guide827" />
    <sodipodi:guide
       position="32,32"
       orientation="32,0"
       id="guide829" />
    <sodipodi:guide
       position="32,0"
       orientation="0,-32"
       id="guide831" />
    <sodipodi:guide
       position="0,0"
       orientation="-32,0"
       id="guide833" />
  </sodipodi:namedview>
  <rect
     style="fill:#ffffff;stroke-width:3.77953;stroke-linecap:square;paint-order:fill markers stroke"
     id="rect961"
     width="21.308804"
     height="21.308804"
     x="5.9073911"
     y="5.274456" />
  <path
     d="m 16,18.837296 c -1.5,0 -2.8,-1.2 -2.8,-2.8 0,-1.5 1.2,-2.8 2.8,-2.8 1.5,0 2.8,1.2 2.8,2.8 0,1.5 -1.3,2.8 -2.8,2.8 z"
     fill="#1cabe2"
     id="path2" />
  <path
     fill-rule="evenodd"
     clip-rule="evenodd"
     d="m 19.4,9.2372961 h -6.8 c -0.8,0.1 -1.2,0.2 -1.5,0.3 -0.4,0.1 -0.7,0.3 -1,0.5999999 -0.23739,0.2374 -0.34955,0.4748 -0.48511,0.7617 -0.03573,0.0756 -0.07319,0.1549 -0.11489,0.2383 -0.01547,0.0464 -0.03333,0.0952 -0.05248,0.1475 -0.10461,0.2858 -0.24752,0.6763 -0.24752,1.3525 v 6.8 c 0.1,0.8 0.2,1.2 0.3,1.5 0.1,0.4 0.3,0.7 0.6,1 0.2374,0.2374 0.4748,0.3495 0.7617,0.4851 0.0757,0.0358 0.1548,0.0732 0.2383,0.1149 0.0464,0.0155 0.0952,0.0333 0.1475,0.0525 0.2858,0.1046 0.6763,0.2475 1.3525,0.2475 h 6.8 c 0.8,-0.1 1.2,-0.2 1.5,-0.3 0.4,-0.1 0.7,-0.3 1,-0.6 0.2374,-0.2374 0.3495,-0.4748 0.4851,-0.7617 0.0358,-0.0757 0.0732,-0.1548 0.1149,-0.2383 0.0155,-0.0464 0.0333,-0.0952 0.0525,-0.1475 0.1046,-0.2858 0.2475,-0.6763 0.2475,-1.3525 v -6.8 c -0.1,-0.8 -0.2,-1.2 -0.3,-1.5 -0.1,-0.4 -0.3,-0.7 -0.6,-1 -0.2374,-0.2373899 -0.4748,-0.3495499 -0.7617,-0.4851199 -0.0756,-0.0357 -0.155,-0.07321 -0.2383,-0.11488 -0.0464,-0.01547 -0.0952,-0.03334 -0.1475,-0.05248 -0.2858,-0.10462 -0.6763,-0.24752 -1.3525,-0.24752 z M 16,11.737296 c -2.4,0 -4.3,1.9 -4.3,4.3 0,2.4 1.9,4.3 4.3,4.3 2.4,0 4.3,-1.9 4.3,-4.3 0,-2.4 -1.9,-4.3 -4.3,-4.3 z m 5.4,-0.1 c 0,0.5523 -0.4477,1 -1,1 -0.5523,0 -1,-0.4477 -1,-1 0,-0.5523 0.4477,-1 1,-1 0.5523,0 1,0.4477 1,1 z"
     fill="#1cabe2"
     id="path4" />
  <path
     fill-rule="evenodd"
     clip-rule="evenodd"
     d="M 0,5.0372961 C 0,2.2758761 2.23858,0.03729605 5,0.03729605 h 22 c 2.7614,0 5,2.23858005 5,5.00000005 V 27.037296 c 0,2.7614 -2.2386,5 -5,5 H 5 c -2.76142,0 -5,-2.2386 -5,-5 z m 12.6,2.7 h 6.8 c 0.9,0.1 1.5,0.2 2,0.4 0.6,0.3 1,0.5 1.5,1 0.5,0.5 0.8,0.9999999 1,1.4999999 0.2,0.5 0.4,1.1 0.4,2 v 6.8 c -0.1,0.9 -0.2,1.5 -0.4,2 -0.3,0.6 -0.5,1 -1,1.5 -0.5,0.5 -1,0.8 -1.5,1 -0.5,0.2 -1.1,0.4 -2,0.4 h -6.8 c -0.9,-0.1 -1.5,-0.2 -2,-0.4 -0.6,-0.3 -1,-0.5 -1.5,-1 -0.5,-0.5 -0.8,-1 -1,-1.5 -0.2,-0.5 -0.4,-1.1 -0.4,-2 v -6.8 c 0.1,-0.9 0.2,-1.5 0.4,-2 0.3,-0.6 0.5,-0.9999999 1,-1.4999999 0.5,-0.5 1,-0.8 1.5,-1 0.5,-0.2 1.1,-0.4 2,-0.4 z"
     fill="#1cabe2"
     id="path6" />
</svg>
